<svg width="13" height="12" viewBox="0 0 13 12" fill="none" xmlns="http://www.w3.org/2000/svg">
<g clip-path="url(#clip0_158_575)">
<path d="M0.618896 4.48675C0.618896 3.20695 0.618896 2.56706 0.888656 2.07999C1.11598 1.66954 1.4728 1.33488 1.91041 1.12166C2.42972 0.868652 3.11198 0.868652 4.47649 0.868652H8.2622C9.62671 0.868652 10.309 0.868652 10.8283 1.12166C11.2659 1.33488 11.6227 1.66954 11.85 2.07999C12.1198 2.56706 12.1198 3.20695 12.1198 4.48675V8.03743C12.1198 9.31723 12.1198 9.95713 11.85 10.4442C11.6227 10.8546 11.2659 11.1893 10.8283 11.4025C10.309 11.6555 9.62671 11.6555 8.2622 11.6555H4.47649C3.11198 11.6555 2.42972 11.6555 1.91041 11.4025C1.4728 11.1893 1.11598 10.8546 0.888656 10.4442C0.618896 9.95713 0.618896 9.31723 0.618896 8.03743V4.48675Z" fill="url(#paint0_radial_158_575)"/>
<path d="M0.618896 4.48675C0.618896 3.20695 0.618896 2.56706 0.888656 2.07999C1.11598 1.66954 1.4728 1.33488 1.91041 1.12166C2.42972 0.868652 3.11198 0.868652 4.47649 0.868652H8.2622C9.62671 0.868652 10.309 0.868652 10.8283 1.12166C11.2659 1.33488 11.6227 1.66954 11.85 2.07999C12.1198 2.56706 12.1198 3.20695 12.1198 4.48675V8.03743C12.1198 9.31723 12.1198 9.95713 11.85 10.4442C11.6227 10.8546 11.2659 11.1893 10.8283 11.4025C10.309 11.6555 9.62671 11.6555 8.2622 11.6555H4.47649C3.11198 11.6555 2.42972 11.6555 1.91041 11.4025C1.4728 11.1893 1.11598 10.8546 0.888656 10.4442C0.618896 9.95713 0.618896 9.31723 0.618896 8.03743V4.48675Z" fill="url(#paint1_radial_158_575)"/>
<path d="M6.36245 2.33936C5.22668 2.33936 5.08414 2.34401 4.63806 2.36305C4.19285 2.38218 3.88896 2.44829 3.62305 2.54529C3.348 2.64547 3.11468 2.77949 2.88223 2.9976C2.6496 3.21563 2.50672 3.43447 2.39955 3.69237C2.29587 3.94186 2.2253 4.22698 2.20526 4.6444C2.18531 5.0628 2.18008 5.19657 2.18008 6.26186C2.18008 7.32714 2.18514 7.46043 2.20535 7.87883C2.22583 8.29641 2.29631 8.58145 2.39964 8.83085C2.50654 9.08884 2.64943 9.30768 2.88197 9.52571C3.11433 9.7439 3.34765 9.87824 3.62253 9.97843C3.88861 10.0754 4.19259 10.1415 4.63771 10.1607C5.0838 10.1797 5.22625 10.1844 6.36192 10.1844C7.49778 10.1844 7.63988 10.1797 8.08596 10.1607C8.53117 10.1415 8.83541 10.0754 9.10149 9.97843C9.37646 9.87824 9.60943 9.7439 9.8418 9.52571C10.0744 9.30768 10.2173 9.08884 10.3245 8.83093C10.4273 8.58145 10.4978 8.29633 10.5188 7.87891C10.5388 7.46051 10.544 7.32714 10.544 6.26186C10.544 5.19657 10.5388 5.06288 10.5188 4.64448C10.4978 4.2269 10.4273 3.94186 10.3245 3.69246C10.2173 3.43447 10.0744 3.21563 9.8418 2.9976C9.60917 2.77941 9.37655 2.64539 9.10123 2.54529C8.83463 2.44829 8.53056 2.38218 8.08535 2.36305C7.63927 2.34401 7.49725 2.33936 6.36114 2.33936H6.36245ZM5.98729 3.04622C6.09863 3.04606 6.22287 3.04622 6.36245 3.04622C7.47904 3.04622 7.61139 3.04998 8.05233 3.06878C8.46008 3.08627 8.68137 3.15017 8.82879 3.20386C9.02395 3.27495 9.16309 3.35994 9.30937 3.49723C9.45574 3.63452 9.54635 3.76527 9.62233 3.94832C9.67957 4.08642 9.74779 4.29399 9.76634 4.67643C9.78638 5.08993 9.79074 5.21414 9.79074 6.26096C9.79074 7.30778 9.78638 7.43199 9.76634 7.84549C9.7477 8.22793 9.67957 8.4355 9.62233 8.5736C9.54653 8.75665 9.45574 8.88699 9.30937 9.0242C9.163 9.16149 9.02404 9.24647 8.82879 9.31757C8.68155 9.3715 8.46008 9.43524 8.05233 9.45273C7.61147 9.47153 7.47904 9.47561 6.36245 9.47561C5.24576 9.47561 5.11342 9.47153 4.67256 9.45273C4.26482 9.43508 4.04352 9.37118 3.89602 9.31749C3.70086 9.24639 3.56146 9.1614 3.41509 9.02412C3.26871 8.88683 3.1781 8.75641 3.10213 8.57327C3.04489 8.43517 2.97667 8.2276 2.95811 7.84516C2.93807 7.43166 2.93407 7.30745 2.93407 6.25998C2.93407 5.21251 2.93807 5.08895 2.95811 4.67545C2.97676 4.29301 3.04489 4.08544 3.10213 3.94717C3.17793 3.76412 3.26871 3.63337 3.41509 3.49608C3.56146 3.3588 3.70086 3.27381 3.89602 3.20255C4.04343 3.14862 4.26482 3.08488 4.67256 3.06731C5.05836 3.05096 5.20786 3.04606 5.98729 3.04524V3.04622ZM8.59477 3.69752C8.31771 3.69752 8.09293 3.90811 8.09293 4.16806C8.09293 4.42792 8.31771 4.63876 8.59477 4.63876C8.87183 4.63876 9.09661 4.42792 9.09661 4.16806C9.09661 3.90819 8.87183 3.69736 8.59477 3.69736V3.69752ZM6.36245 4.24749C5.17641 4.24749 4.21481 5.14942 4.21481 6.26186C4.21481 7.3743 5.17641 8.27582 6.36245 8.27582C7.54848 8.27582 8.50974 7.3743 8.50974 6.26186C8.50974 5.14942 7.5484 4.24749 6.36236 4.24749H6.36245ZM6.36245 4.95436C7.13229 4.95436 7.75645 5.53971 7.75645 6.26186C7.75645 6.98392 7.13229 7.56936 6.36245 7.56936C5.59252 7.56936 4.96844 6.98392 4.96844 6.26186C4.96844 5.53971 5.59252 4.95436 6.36245 4.95436Z" fill="white"/>
</g>
<defs>
<radialGradient id="paint0_radial_158_575" cx="0" cy="0" r="1" gradientUnits="userSpaceOnUse" gradientTransform="translate(3.67383 12.4864) rotate(-90) scale(10.6906 10.6013)">
<stop stop-color="#FFDD55"/>
<stop offset="0.1" stop-color="#FFDD55"/>
<stop offset="0.5" stop-color="#FF543E"/>
<stop offset="1" stop-color="#C837AB"/>
</radialGradient>
<radialGradient id="paint1_radial_158_575" cx="0" cy="0" r="1" gradientUnits="userSpaceOnUse" gradientTransform="translate(-1.30756 1.64572) rotate(77.9526) scale(4.79131 20.9469)">
<stop stop-color="#3771C8"/>
<stop offset="0.128" stop-color="#3771C8"/>
<stop offset="1" stop-color="#6600FF" stop-opacity="0"/>
</radialGradient>
<clipPath id="clip0_158_575">
<rect width="11.5009" height="10.7869" fill="white" transform="translate(0.611816 0.868652)"/>
</clipPath>
</defs>
</svg>
