<svg width="23" height="23" viewBox="0 0 23 23" fill="none" xmlns="http://www.w3.org/2000/svg">
<path fill-rule="evenodd" clip-rule="evenodd" d="M11.2131 0C5.13775 0 0.213135 5.14846 0.213135 11.5C0.213135 17.8515 5.13775 23 11.2131 23C17.2885 23 22.2131 17.8515 22.2131 11.5C22.2131 5.14846 17.2885 0 11.2131 0ZM16.0701 9.83692L10.7054 15.0915L9.69006 16.0823C9.5716 16.2062 9.40237 16.2769 9.19929 16.2769C8.99621 16.2769 8.82698 16.2062 8.6916 16.0823L7.67621 15.0915L5.00237 12.4554C4.86698 12.3315 4.79929 12.1546 4.79929 11.96C4.79929 11.7654 4.86698 11.6062 5.00237 11.4646L6.01775 10.4738C6.15313 10.3323 6.32237 10.2792 6.52544 10.2792C6.72852 10.2792 6.89775 10.35 7.03314 10.4738L9.21621 12.6146L14.0731 7.85538C14.2085 7.71385 14.3778 7.66077 14.5808 7.66077C14.7839 7.66077 14.9531 7.73154 15.0885 7.85538L16.0701 8.84615C16.2224 8.98769 16.2901 9.14692 16.2901 9.34154C16.2901 9.53615 16.2224 9.69538 16.0701 9.83692Z" fill="#418D19"/>
</svg>
