<svg width="23" height="22" viewBox="0 0 23 22" fill="none" xmlns="http://www.w3.org/2000/svg">
<path fill-rule="evenodd" clip-rule="evenodd" d="M11.6035 0C5.52813 0 0.603516 4.92462 0.603516 11C0.603516 17.0754 5.52813 22 11.6035 22C17.6789 22 22.6035 17.0754 22.6035 11C22.6035 4.92462 17.6789 0 11.6035 0ZM16.4604 9.40923L11.0958 14.4354L10.0804 15.3831C9.96198 15.5015 9.79275 15.5692 9.58967 15.5692C9.38659 15.5692 9.21736 15.5015 9.08198 15.3831L8.06659 14.4354L5.39275 11.9138C5.25736 11.7954 5.18967 11.6262 5.18967 11.44C5.18967 11.2538 5.25736 11.1015 5.39275 10.9662L6.40813 10.0185C6.54352 9.88308 6.71275 9.83231 6.91582 9.83231C7.1189 9.83231 7.28813 9.9 7.42352 10.0185L9.60659 12.0662L14.4635 7.51385C14.5989 7.37846 14.7681 7.32769 14.9712 7.32769C15.1743 7.32769 15.3435 7.39538 15.4789 7.51385L16.4604 8.46154C16.6127 8.59692 16.6804 8.74923 16.6804 8.93538C16.6804 9.12154 16.6127 9.27385 16.4604 9.40923Z" fill="#418D19"/>
</svg>
