<svg width="12" height="13" viewBox="0 0 12 13" fill="none" xmlns="http://www.w3.org/2000/svg">
<path fill-rule="evenodd" clip-rule="evenodd" d="M6 0.278809C2.68615 0.278809 0 2.96496 0 6.27881C0 9.59266 2.68615 12.2788 6 12.2788C9.31385 12.2788 12 9.59266 12 6.27881C12 2.96496 9.31385 0.278809 6 0.278809ZM8.64923 5.41112L5.72308 8.15265L5.16923 8.66958C5.10462 8.73419 5.01231 8.77112 4.90154 8.77112C4.79077 8.77112 4.69846 8.73419 4.62462 8.66958L4.07077 8.15265L2.61231 6.77727C2.53846 6.71265 2.50154 6.62035 2.50154 6.51881C2.50154 6.41727 2.53846 6.33419 2.61231 6.26035L3.16615 5.74342C3.24 5.66958 3.33231 5.64189 3.44308 5.64189C3.55385 5.64189 3.64615 5.67881 3.72 5.74342L4.91077 6.86035L7.56 4.37727C7.63385 4.30342 7.72615 4.27573 7.83692 4.27573C7.94769 4.27573 8.04 4.31265 8.11385 4.37727L8.64923 4.89419C8.73231 4.96804 8.76923 5.05112 8.76923 5.15266C8.76923 5.25419 8.73231 5.33727 8.64923 5.41112Z" fill="#77C44F"/>
</svg>
